<svg width="24" height="24" viewBox="0 0 24 24" fill="none" xmlns="http://www.w3.org/2000/svg">
<path fill-rule="evenodd" clip-rule="evenodd" d="M2.0369 11.2933C8.23838 8.59144 12.3737 6.81019 14.4428 5.94958C20.3505 3.49236 21.5781 3.06551 22.3782 3.05142C22.5542 3.04832 22.9476 3.09193 23.2025 3.29875C23.4177 3.47337 23.4769 3.70927 23.5053 3.87484C23.5336 4.04041 23.5689 4.41758 23.5408 4.71228C23.2207 8.07603 21.8355 16.2389 21.1307 20.0064C20.8325 21.6005 20.2454 22.1351 19.6769 22.1874C18.4416 22.301 17.5035 21.371 16.307 20.5866C14.4347 19.3593 13.377 18.5953 11.5596 17.3977C9.45927 16.0136 10.8208 15.2529 12.0178 14.0097C12.331 13.6844 17.774 8.73353 17.8794 8.28441C17.8926 8.22824 17.9048 8.01887 17.7804 7.90831C17.656 7.79775 17.4724 7.83556 17.34 7.86563C17.1522 7.90825 14.1612 9.88519 8.36691 13.7965C7.51793 14.3794 6.74894 14.6635 6.05995 14.6486C5.3004 14.6322 3.83932 14.2191 2.75317 13.8661C1.42095 13.433 0.362128 13.2041 0.454327 12.4686C0.50235 12.0855 1.02987 11.6938 2.0369 11.2933Z" fill="black"/>
</svg>
